<svg aria-hidden="true" style="position:absolute;width:0;height:0;overflow:hidden" xmlns="http://www.w3.org/2000/svg"><defs><symbol id="icon-star" viewBox="0 0 32 32"><path fill="#ffc531" style="fill:var(--color1, #ffc531);stroke:var(--color1, #ffc531)" stroke="#ffc531" stroke-width="2.4" d="M12.4 9.394 16 2.572l3.6 6.822a2.2 2.2 0 0 0 1.571 1.141l7.601 1.315-5.376 5.532a2.2 2.2 0 0 0-.6 1.846l1.098 7.635-6.922-3.404a2.199 2.199 0 0 0-1.941 0l-6.922 3.404 1.098-7.635a2.2 2.2 0 0 0-.6-1.846L3.231 11.85l7.601-1.315a2.202 2.202 0 0 0 1.571-1.141zm16.635 2.185zM7.767 27.031z"/></symbol><symbol id="icon-check" viewBox="0 0 32 32"><path fill="none" stroke="#08aa83" style="stroke:var(--color2, #08aa83)" stroke-linejoin="round" stroke-linecap="round" stroke-width="2.182" d="M26.667 9.333 12 24l-6.667-6.667"/></symbol><symbol id="icon-female" viewBox="0 0 32 32"><path fill="none" stroke-linejoin="round" stroke-linecap="round" stroke-width="2" d="M16 17.333a6.667 6.667 0 1 0 0-13.334 6.667 6.667 0 0 0 0 13.334zm0 0V28m-4-4h8"/></symbol><symbol id="icon-male" viewBox="0 0 32 32"><path fill="none" stroke-linejoin="round" stroke-linecap="round" stroke-width="2" d="M16 14.667a6.667 6.667 0 1 0 0 13.334 6.667 6.667 0 0 0 0-13.334zm0 0V4m0 0 5.333 5.333M16 4l-5.333 5.333"/></symbol><symbol id="icon-cross" viewBox="0 0 32 32"><path fill="none" stroke="#ef2447" style="stroke:var(--color5, #ef2447)" stroke-linejoin="round" stroke-linecap="round" stroke-width="2.909" d="M25.333 6.667 6.666 25.334m0-18.667 18.667 18.667"/></symbol><symbol id="icon-calendar" viewBox="0 0 32 32"><path stroke-linejoin="round" stroke-linecap="round" stroke-width="2.88" d="M25.333 5.333H6.666A2.667 2.667 0 0 0 3.999 8v18.667a2.667 2.667 0 0 0 2.667 2.667h18.667A2.667 2.667 0 0 0 28 26.667V8a2.667 2.667 0 0 0-2.667-2.667zM21.333 2.667V8M10.667 2.667V8M4 13.333h24"/></symbol><symbol id="icon-chevron-down" viewBox="0 0 32 32"><path stroke-linejoin="round" stroke-linecap="round" stroke-width="3.556" d="m8 12 8 8 8-8"/></symbol><symbol id="icon-eye" viewBox="0 0 32 32"><path fill="none" stroke="#f6b83d" style="stroke:var(--color6, #f6b83d)" stroke-linejoin="round" stroke-linecap="round" stroke-width="2.909" d="M1.332 16S6.665 5.333 15.999 5.333 30.666 16 30.666 16s-5.333 10.667-14.667 10.667C6.666 26.667 1.332 16 1.332 16z"/><path fill="none" stroke="#f6b83d" style="stroke:var(--color6, #f6b83d)" stroke-linejoin="round" stroke-linecap="round" stroke-width="2.909" d="M16 20a4 4 0 1 0 0-8 4 4 0 0 0 0 8z"/></symbol><symbol id="icon-eye-off" viewBox="0 0 32 32"><path fill="none" stroke="#f6b83d" style="stroke:var(--color6, #f6b83d)" stroke-linejoin="round" stroke-linecap="round" stroke-width="2.909" d="M23.922 23.92a13.43 13.43 0 0 1-7.92 2.747C6.669 26.667 1.335 16 1.335 16a24.605 24.605 0 0 1 6.747-7.92m5.12-2.427a12.161 12.161 0 0 1 2.8-.32C25.335 5.333 30.669 16 30.669 16a24.646 24.646 0 0 1-2.88 4.253m-8.961-1.426a4.01 4.01 0 0 1-2.855 1.273 3.996 3.996 0 0 1-3.779-2.501 3.995 3.995 0 0 1 .983-4.424M1.335 1.333l29.333 29.333"/></symbol><symbol id="icon-search" viewBox="0 0 32 32"><path stroke-linejoin="round" stroke-linecap="round" stroke-width="3.556" d="M14.667 25.333c5.891 0 10.667-4.776 10.667-10.667S20.558 3.999 14.667 3.999 4 8.775 4 14.666s4.776 10.667 10.667 10.667zM28.001 28l-5.8-5.8"/></symbol><symbol id="icon-user" viewBox="0 0 32 32"><path stroke-linejoin="round" stroke-linecap="round" stroke-width="2.667" d="M16 20c-4.227 0-7.986 2.041-10.379 5.208-.515.682-.773 1.022-.764 1.483.006.356.23.805.51 1.025.362.284.865.284 1.869.284h17.527c1.005 0 1.507 0 1.869-.284.28-.22.503-.669.51-1.025.008-.461-.249-.801-.764-1.483C23.985 22.041 20.226 20 15.999 20zM16 16a6 6 0 1 0 0-12 6 6 0 0 0 0 12z"/></symbol><symbol id="icon-logo-header-home" viewBox="0 0 106 32"><path fill="#fff" style="fill:var(--color7, #fff)" d="M9.38 25.42c-1.503 0-2.758-.35-3.766-1.05s-1.769-1.652-2.282-2.856c-.504-1.204-.756-2.562-.756-4.074s.252-2.87.756-4.074c.504-1.204 1.246-2.156 2.226-2.856s2.189-1.05 3.626-1.05c1.447 0 2.707.345 3.78 1.036s1.904 1.638 2.492 2.842c.597 1.195.896 2.562.896 4.102 0 1.512-.294 2.87-.882 4.074-.579 1.204-1.391 2.156-2.436 2.856s-2.263 1.05-3.654 1.05zm-7.448 6.3V9.88h3.36v10.36h.476v11.48H1.932zm6.832-9.688c.821 0 1.493-.205 2.016-.616s.91-.961 1.162-1.652c.252-.7.378-1.475.378-2.324 0-.84-.131-1.605-.392-2.296-.261-.7-.667-1.255-1.218-1.666-.541-.42-1.237-.63-2.086-.63-.793 0-1.437.191-1.932.574-.485.383-.84.919-1.064 1.61s-.336 1.493-.336 2.408c0 .915.112 1.717.336 2.408s.588 1.227 1.092 1.61c.513.383 1.195.574 2.044.574zm16.577 3.388c-1.549 0-2.917-.331-4.102-.994a7.348 7.348 0 0 1-2.772-2.758c-.663-1.176-.994-2.52-.994-4.032 0-1.652.327-3.089.98-4.312s1.554-2.17 2.702-2.842c1.148-.681 2.469-1.022 3.962-1.022 1.587 0 2.935.373 4.046 1.12s1.932 1.797 2.464 3.15.719 2.945.56 4.774h-3.766v-1.4c0-1.54-.247-2.646-.742-3.318-.485-.681-1.283-1.022-2.394-1.022-1.297 0-2.254.397-2.87 1.19-.607.784-.91 1.946-.91 3.486 0 1.409.303 2.501.91 3.276.616.765 1.517 1.148 2.702 1.148.747 0 1.386-.163 1.918-.49s.938-.798 1.218-1.414l3.808 1.092c-.569 1.381-1.47 2.455-2.702 3.22a7.43 7.43 0 0 1-4.018 1.148zm-5.012-6.916v-2.828h10.024v2.828H20.329zM43.3 25c-1.045.196-2.072.28-3.08.252-.999-.019-1.895-.191-2.688-.518a3.635 3.635 0 0 1-1.792-1.61c-.373-.691-.569-1.391-.588-2.1a93.294 93.294 0 0 1-.028-2.436V5.68h3.808v12.684c0 .588.005 1.12.014 1.596.019.467.117.84.294 1.12.336.532.873.821 1.61.868s1.554.009 2.45-.112V25zM32.548 12.82V9.88H43.3v2.94H32.548zM45.829 25V4.42h3.808V25h-3.808zM63.493 10.434c-1.839-2.172-4.907-2.756-7.211-.767s-2.629 5.314-.819 7.666c1.159 1.506 4.128 4.3 6.113 6.114.66.603.989.904 1.384 1.025.34.104.728.104 1.067 0 .395-.121.725-.422 1.384-1.025 1.985-1.814 4.954-4.608 6.113-6.114 1.81-2.352 1.525-5.698-.819-7.666s-5.372-1.405-7.211.767zM81.048 25 75.56 9.88h3.374l3.808 10.962L86.536 9.88h3.388L84.436 25h-3.388zm16.596.42c-1.531 0-2.875-.331-4.032-.994s-2.063-1.582-2.716-2.758c-.644-1.176-.966-2.529-.966-4.06 0-1.652.317-3.085.952-4.298.635-1.223 1.517-2.17 2.646-2.842s2.436-1.008 3.92-1.008c1.568 0 2.898.369 3.99 1.106 1.101.728 1.918 1.759 2.45 3.094s.732 2.907.602 4.718h-3.346v-1.232c-.01-1.643-.299-2.842-.868-3.598s-1.466-1.134-2.688-1.134c-1.381 0-2.408.429-3.08 1.288-.672.849-1.008 2.095-1.008 3.738 0 1.531.336 2.716 1.008 3.556s1.652 1.26 2.94 1.26c.831 0 1.545-.182 2.142-.546.606-.373 1.073-.91 1.4-1.61l3.332 1.008c-.579 1.363-1.475 2.422-2.688 3.178-1.204.756-2.534 1.134-3.99 1.134zm-5.208-7.042V15.83h10.402v2.548H92.436z"/></symbol><symbol id="icon-logo-header" viewBox="0 0 106 32"><path fill="#262626" style="fill:var(--color8, #262626)" d="M9.169 25.461c-1.466 0-2.694-.348-3.687-1.043s-1.739-1.642-2.24-2.838c-.501-1.206-.751-2.555-.751-4.049 0-1.512.25-2.866.751-4.063s1.234-2.138 2.198-2.824c.974-.696 2.175-1.043 3.603-1.043 1.419 0 2.648.348 3.687 1.043 1.048.686 1.86 1.628 2.435 2.824.575 1.187.863 2.542.863 4.063 0 1.503-.283 2.852-.849 4.049s-1.363 2.143-2.393 2.838c-1.03.696-2.235 1.043-3.617 1.043zM1.92 31.722V10.018h2.963v10.546H5.3v11.158H1.919zm6.734-9.266c.872 0 1.591-.218 2.157-.654s.983-1.025 1.252-1.767c.278-.751.417-1.586.417-2.504 0-.909-.139-1.735-.417-2.477-.278-.751-.71-1.345-1.294-1.781-.584-.445-1.326-.668-2.226-.668-.853 0-1.549.209-2.087.626-.538.408-.937.983-1.197 1.725-.25.733-.376 1.591-.376 2.574 0 .974.125 1.832.376 2.574.26.742.663 1.322 1.21 1.739.557.408 1.285.612 2.184.612zm16.159 3.005c-1.521 0-2.857-.329-4.007-.988s-2.05-1.572-2.699-2.741c-.64-1.169-.96-2.514-.96-4.035 0-1.642.315-3.065.946-4.271.631-1.215 1.507-2.157 2.63-2.824S23.144 9.6 24.619 9.6c1.558 0 2.88.366 3.965 1.099 1.095.723 1.906 1.748 2.435 3.075s.728 2.889.598 4.689h-3.325v-1.224c-.009-1.632-.297-2.824-.863-3.576s-1.456-1.127-2.671-1.127c-1.373 0-2.393.427-3.061 1.28-.668.844-1.002 2.082-1.002 3.715 0 1.521.334 2.699 1.002 3.534s1.642 1.252 2.922 1.252c.826 0 1.535-.181 2.129-.543.603-.371 1.067-.904 1.391-1.6l3.311 1.002c-.575 1.354-1.465 2.407-2.671 3.158a7.31 7.31 0 0 1-3.965 1.127zm-5.176-6.998v-2.532h10.337v2.532H19.637zm22.778 6.58c-.993.185-1.966.264-2.922.237-.946-.018-1.795-.19-2.546-.515a3.528 3.528 0 0 1-1.711-1.572c-.343-.649-.524-1.312-.543-1.99s-.028-1.442-.028-2.296V5.843h3.339v12.87c0 .603.005 1.132.014 1.586.019.455.116.825.292 1.113.334.557.867.867 1.6.932s1.567.028 2.504-.111v2.81zM31.938 12.647v-2.63h10.477v2.63H31.938zm12.873 12.396V4.591h3.353v20.452h-3.353z"/><path fill="#f6b83d" style="fill:var(--color6, #f6b83d)" d="M63.298 9.762c-1.891-2.233-5.046-2.834-7.416-.789s-2.704 5.464-.843 7.883c1.192 1.549 4.245 4.422 6.286 6.287.678.62 1.017.93 1.424 1.054.349.107.748.107 1.097 0 .406-.124.745-.434 1.424-1.054 2.041-1.865 5.094-4.738 6.286-6.287 1.861-2.419 1.568-5.86-.842-7.883s-5.524-1.444-7.416.789z"/><path fill="#262626" style="fill:var(--color8, #262626)" d="m81.141 25.043-5.454-15.026h3.353l3.784 10.894 3.77-10.894h3.367l-5.454 15.026H81.14zm16.493.418c-1.521 0-2.857-.329-4.007-.988s-2.05-1.572-2.699-2.741c-.64-1.169-.96-2.514-.96-4.035 0-1.642.315-3.065.946-4.271.631-1.215 1.507-2.157 2.63-2.824S95.965 9.6 97.44 9.6c1.558 0 2.88.366 3.965 1.099 1.094.723 1.906 1.748 2.435 3.075s.728 2.889.598 4.689h-3.325v-1.224c-.009-1.632-.297-2.824-.863-3.576s-1.456-1.127-2.671-1.127c-1.373 0-2.393.427-3.061 1.28-.668.844-1.002 2.082-1.002 3.715 0 1.521.334 2.699 1.002 3.534s1.642 1.252 2.922 1.252c.825 0 1.535-.181 2.129-.543.603-.371 1.067-.904 1.391-1.6l3.311 1.002c-.575 1.354-1.466 2.407-2.671 3.158a7.31 7.31 0 0 1-3.965 1.127zm-5.176-6.998v-2.532h10.337v2.532H92.458z"/></symbol><symbol id="icon-edit" viewBox="0 0 32 32"><path fill="none" stroke="#f6b83d" style="stroke:var(--color6, #f6b83d)" stroke-linejoin="round" stroke-linecap="round" stroke-width="2.667" d="M22.667 4a3.766 3.766 0 0 1 4.109-.817 3.766 3.766 0 0 1 2.327 3.484 3.779 3.779 0 0 1-1.104 2.666l-18 18-7.333 2 2-7.333 18-18z"/></symbol><symbol id="icon-trash" viewBox="0 0 32 32"><path fill="none" stroke="#f6b83d" style="stroke:var(--color6, #f6b83d)" stroke-linejoin="round" stroke-linecap="round" stroke-width="2.667" d="M4 8h24M25.333 8v18.667a2.668 2.668 0 0 1-2.667 2.667H9.333a2.668 2.668 0 0 1-2.667-2.667V8m4.001 0V5.333a2.668 2.668 0 0 1 2.667-2.667h5.333a2.668 2.668 0 0 1 2.667 2.667V8M13.333 14.667v8M18.667 14.667v8"/></symbol><symbol id="icon-heart" viewBox="0 0 32 32"><path stroke-linejoin="round" stroke-linecap="round" stroke-width="2.667" d="M27.788 6.147a7.345 7.345 0 0 0-5.187-2.15 7.33 7.33 0 0 0-5.187 2.15L16.001 7.56l-1.413-1.413a7.333 7.333 0 0 0-10.374 0 7.333 7.333 0 0 0 0 10.374l11.787 11.787 11.787-11.787a7.345 7.345 0 0 0 2.149-5.187 7.33 7.33 0 0 0-2.149-5.187z"/></symbol><symbol id="icon-angle" viewBox="0 0 32 32"><path d="M14.134 16.947a1.334 1.334 0 0 1 0-1.894l6.12-6.107a1.334 1.334 0 1 0-1.88-1.894l-6.12 6.12a4.001 4.001 0 0 0 0 5.654l6.12 6.12a1.337 1.337 0 0 0 2.172-.434 1.331 1.331 0 0 0-.292-1.46l-6.12-6.107z"/></symbol><symbol id="icon-multiple" viewBox="0 0 32 32"><path d="M11.694 10.327a4.665 4.665 0 1 0 2.912 3.635.654.654 0 0 1 .313-.672.653.653 0 0 1 .504-.078.67.67 0 0 1 .501.546 5.993 5.993 0 0 1-3.514 6.403 5.997 5.997 0 1 1-.232-11.077.665.665 0 0 1 .433.609.669.669 0 0 1-.403.628.665.665 0 0 1-.515.006z"/><path d="M9.331 26v-5.331a.665.665 0 1 1 1.332 0V26a.665.665 0 1 1-1.332 0z"/><path d="M7.332 22.668a.665.665 0 0 1 .666-.666h3.998a.665.665 0 1 1 0 1.332H7.998a.665.665 0 0 1-.666-.666zm11.93-12.486a4.653 4.653 0 0 0-4.297.943 4.678 4.678 0 0 0-1.315 1.848 4.652 4.652 0 0 0-.288 2.249.67.67 0 0 1-.335.663.665.665 0 0 1-.989-.507 5.997 5.997 0 1 1 3.582 4.801.655.655 0 0 1-.355-.365.668.668 0 0 1 .883-.859 4.665 4.665 0 1 0 3.115-8.773z"/><path d="M21.855 11.477a.665.665 0 0 1 0-.942l4.998-4.998a.658.658 0 0 1 .473-.203.655.655 0 0 1 .477.196.673.673 0 0 1 .196.477.669.669 0 0 1-.203.473l-4.998 4.998a.667.667 0 0 1-.942 0z"/><path d="M27.273 10.007a.669.669 0 0 1-.657-.675l.033-2.648-2.648.033a.67.67 0 0 1-.675-.658.67.67 0 0 1 .658-.675L28 5.333l-.051 4.016a.65.65 0 0 1-.201.468c-.063.061-.137.109-.218.142s-.168.049-.256.047z"/></symbol><symbol id="icon-logo-main" viewBox="0 0 107 32"><path fill="#fff" style="fill:var(--color7, #fff)" d="M9.414 25.571c-1.505 0-2.767-.357-3.786-1.071s-1.786-1.686-2.3-2.914c-.514-1.238-.771-2.624-.771-4.157 0-1.552.257-2.943.771-4.171s1.267-2.195 2.257-2.9c1-.714 2.233-1.071 3.7-1.071 1.457 0 2.719.357 3.786 1.071 1.076.705 1.909 1.671 2.5 2.9.59 1.219.886 2.61.886 4.171 0 1.543-.291 2.929-.871 4.157s-1.4 2.2-2.457 2.914-2.295 1.071-3.714 1.071zM1.971 32V9.714h3.043v10.829h.429V32H1.972zm6.915-9.514c.895 0 1.633-.224 2.214-.671s1.009-1.052 1.286-1.814c.286-.771.429-1.629.429-2.571 0-.933-.143-1.781-.429-2.543-.286-.771-.729-1.381-1.329-1.829-.6-.457-1.362-.686-2.286-.686-.876 0-1.591.214-2.143.643-.552.419-.962 1.009-1.229 1.771-.257.752-.386 1.633-.386 2.643 0 1 .129 1.881.386 2.643.267.762.681 1.357 1.243 1.786.571.419 1.319.629 2.243.629zm16.591 3.085c-1.562 0-2.933-.338-4.114-1.014s-2.105-1.614-2.771-2.814c-.657-1.2-.986-2.581-.986-4.143 0-1.686.324-3.148.971-4.386.648-1.248 1.548-2.214 2.7-2.9s2.486-1.029 4-1.029c1.6 0 2.957.376 4.071 1.129 1.124.743 1.957 1.795 2.5 3.157s.748 2.967.614 4.814h-3.414v-1.257c-.009-1.676-.305-2.9-.886-3.671S26.667 12.3 25.419 12.3c-1.41 0-2.457.438-3.143 1.314-.686.867-1.029 2.138-1.029 3.814 0 1.562.343 2.771 1.029 3.629s1.686 1.286 3 1.286c.848 0 1.576-.186 2.186-.557.619-.381 1.095-.929 1.429-1.643l3.4 1.029c-.591 1.39-1.505 2.471-2.743 3.243-1.229.771-2.586 1.157-4.071 1.157zm-5.314-7.185v-2.6h10.614v2.6H20.163zm23.388 6.757a14.069 14.069 0 0 1-3 .243c-.971-.019-1.843-.195-2.614-.529a3.626 3.626 0 0 1-1.757-1.614c-.352-.667-.538-1.348-.557-2.043s-.029-1.481-.029-2.357V5.429h3.429v13.214c0 .619.005 1.162.014 1.629.019.467.119.848.3 1.143.343.571.891.89 1.643.957s1.61.029 2.571-.114v2.886zM32.793 12.414v-2.7H43.55v2.7H32.793zm13.218 12.729v-21h3.443v21h-3.443z"/><path fill="#f6b83d" style="fill:var(--color6, #f6b83d)" d="M63.708 10.679c-1.874-2.212-4.998-2.807-7.346-.782s-2.678 5.413-.835 7.809c1.181 1.535 4.205 4.38 6.227 6.228.672.614 1.008.921 1.41 1.044.346.106.741.106 1.087 0 .402-.123.738-.43 1.41-1.044 2.022-1.848 5.046-4.693 6.227-6.228 1.843-2.396 1.553-5.804-.835-7.809s-5.472-1.431-7.346.782z"/><path fill="#fff" style="fill:var(--color7, #fff)" d="M81.6 25.143 76 9.714h3.443L83.329 20.9 87.2 9.714h3.457l-5.6 15.429H81.6zm16.934.428c-1.562 0-2.933-.338-4.114-1.014s-2.105-1.614-2.771-2.814c-.657-1.2-.986-2.581-.986-4.143 0-1.686.324-3.148.971-4.386.648-1.248 1.548-2.214 2.7-2.9s2.486-1.029 4-1.029c1.6 0 2.957.376 4.071 1.129 1.124.743 1.957 1.795 2.5 3.157s.748 2.967.614 4.814h-3.414v-1.257c-.009-1.676-.305-2.9-.886-3.671S99.724 12.3 98.476 12.3c-1.409 0-2.457.438-3.143 1.314-.686.867-1.029 2.138-1.029 3.814 0 1.562.343 2.771 1.029 3.629s1.686 1.286 3 1.286c.848 0 1.576-.186 2.186-.557.619-.381 1.095-.929 1.429-1.643l3.4 1.029c-.59 1.39-1.505 2.471-2.743 3.243-1.229.771-2.586 1.157-4.071 1.157zm-5.314-7.185v-2.6h10.614v2.6H93.22z"/></symbol><symbol id="icon-close" viewBox="0 0 32 32"><path stroke-linejoin="round" stroke-linecap="round" stroke-width="2.667" d="M24 8 8 24M8 8l16 16"/></symbol><symbol id="icon-menu" viewBox="0 0 32 32"><path stroke-linejoin="round" stroke-linecap="round" stroke-width="3" d="M4 16h24M4 8h24M4 24h24"/></symbol><symbol id="icon-upload-cloud" viewBox="0 0 32 32"><path fill="none" stroke="#f6b83d" style="stroke:var(--color1, #f6b83d)" stroke-linejoin="round" stroke-linecap="round" stroke-width="2.311" d="M16 16v12M27.187 24.52a6.671 6.671 0 0 0 3.27-7.497A6.669 6.669 0 0 0 24.001 12h-1.68a10.659 10.659 0 0 0-10.72-7.99A10.657 10.657 0 0 0 3.38 8.378a10.661 10.661 0 0 0-1.66 9.159 10.663 10.663 0 0 0 2.281 4.196"/><path fill="none" stroke="#f6b83d" style="stroke:var(--color1, #f6b83d)" stroke-linejoin="round" stroke-linecap="round" stroke-width="2.311" d="M21.333 21.333 16 16l-5.333 5.333"/></symbol><symbol id="icon-footprint" viewBox="0 0 32 32"><path d="M12.5 5c-1.07 0-2.002.608-2.594 1.438S9 8.34 9 9.5s.314 2.233.906 3.063S11.43 14 12.5 14s2.002-.608 2.594-1.438c.592-.83.906-1.902.906-3.062s-.314-2.233-.906-3.063C14.502 5.607 13.57 5 12.5 5zM16 9.5c0 1.16.314 2.233.906 3.063S18.431 14 19.5 14c1.07 0 2.002-.608 2.594-1.438S23 10.66 23 9.5s-.314-2.233-.906-3.063C21.502 5.607 20.57 5 19.5 5s-2.002.608-2.594 1.438C16.314 7.268 16 8.34 16 9.5zM12.5 7c.312 0 .656.156.97.594.31.437.53 1.133.53 1.906s-.22 1.47-.53 1.906c-.314.438-.658.594-.97.594s-.656-.156-.97-.594c-.31-.437-.53-1.133-.53-1.906s.22-1.47.53-1.906c.314-.438.658-.594.97-.594zm7 0c.312 0 .656.156.97.594.31.437.53 1.133.53 1.906s-.22 1.47-.53 1.906c-.314.438-.658.594-.97.594s-.656-.156-.97-.594c-.31-.437-.53-1.133-.53-1.906s.22-1.47.53-1.906c.314-.438.658-.594.97-.594zm-12 5c-1.07 0-2.002.608-2.594 1.438S4 15.34 4 16.5s.314 2.233.906 3.063C5.498 20.393 6.43 21 7.5 21s2.002-.608 2.594-1.438c.592-.83.906-1.902.906-3.062s-.314-2.233-.906-3.063C9.502 12.607 8.57 12 7.5 12zm17 0c-1.07 0-2.002.608-2.594 1.438S21 15.34 21 16.5s.314 2.233.906 3.063C22.498 20.393 23.43 21 24.5 21s2.002-.608 2.594-1.438c.592-.83.906-1.902.906-3.062s-.314-2.233-.906-3.063C26.502 12.607 25.57 12 24.5 12zm-17 2c.312 0 .656.156.97.594.31.437.53 1.133.53 1.906s-.22 1.47-.53 1.906c-.314.438-.658.594-.97.594s-.656-.156-.97-.594C6.22 17.97 6 17.273 6 16.5s.22-1.47.53-1.906c.314-.438.658-.594.97-.594zm17 0c.312 0 .656.156.97.594.31.437.53 1.133.53 1.906s-.22 1.47-.53 1.906c-.314.438-.658.594-.97.594s-.656-.156-.97-.594c-.31-.437-.53-1.133-.53-1.906s.22-1.47.53-1.906c.314-.438.658-.594.97-.594zM16 16c-1.333 0-2.263.865-2.72 1.625-.454.76-.734 1.392-1 1.656-.153.157-1.118.52-2.124 1.033-.503.257-1.01.6-1.437 1.125-.43.525-.72 1.25-.72 2.063 0 1.92 1.58 3.5 3.5 3.5.866 0 1.77-.28 2.655-.53C15.043 26.216 16 26 16 26s.957.216 1.844.47c.886.25 1.79.53 2.656.53 1.92 0 3.5-1.58 3.5-3.5 0-.794-.293-1.52-.72-2.03-.425-.513-.937-.83-1.436-1.095-1-.53-1.983-.95-2.125-1.094-.24-.237-.51-.89-.97-1.654C18.29 16.86 17.34 16 16 16zm0 2c.66 0 .733.16 1.03.656.3.495.524 1.336 1.25 2.063.825.82 1.867 1 2.626 1.404.38.202.67.417.844.625.173.207.25.396.25.75 0 .84-.66 1.5-1.5 1.5-.29 0-1.224-.22-2.094-.47-.87-.247-1.59-.53-2.406-.53s-1.536.283-2.406.53c-.87.25-1.804.47-2.094.47-.84 0-1.5-.66-1.5-1.5 0-.403.084-.61.25-.814.166-.203.472-.404.844-.593.744-.38 1.78-.53 2.625-1.375.733-.737.953-1.605 1.25-2.095.292-.49.362-.625 1.03-.625L16 18z"/></symbol></defs></svg>