<svg aria-hidden="true" style="position: absolute; width: 0; height: 0; overflow: hidden;" version="1.1" xmlns="http://www.w3.org/2000/svg" xmlns:xlink="http://www.w3.org/1999/xlink">
<defs>
<symbol id="icon-star" viewBox="0 0 32 32">
<path fill="#ffc531" style="fill: var(--color1, #ffc531); stroke: var(--color1, #ffc531)" stroke="#ffc531" stroke-linejoin="miter" stroke-linecap="butt" stroke-miterlimit="4" stroke-width="2.4" d="M12.4 9.394l3.6-6.822 3.6 6.822c0.318 0.603 0.899 1.025 1.571 1.141l7.601 1.315-5.376 5.532c-0.475 0.489-0.697 1.171-0.6 1.846l1.098 7.635-6.922-3.404c-0.612-0.301-1.329-0.301-1.941 0l-6.922 3.404 1.098-7.635c0.097-0.675-0.125-1.357-0.6-1.846l-5.376-5.532 7.601-1.315c0.672-0.116 1.252-0.538 1.571-1.141zM29.035 11.579v0zM7.767 27.031c0 0 0 0 0 0h-0z"></path>
</symbol>
<symbol id="icon-check" viewBox="0 0 32 32">
<path fill="none" stroke="#08aa83" style="stroke: var(--color2, #08aa83)" stroke-linejoin="round" stroke-linecap="round" stroke-miterlimit="4" stroke-width="2.1818" d="M26.667 9.333l-14.667 14.667-6.667-6.667"></path>
</symbol>
<symbol id="icon-female" viewBox="0 0 32 32">
<path fill="none" stroke="#f43f5e" style="stroke: var(--color3, #f43f5e)" stroke-linejoin="round" stroke-linecap="round" stroke-miterlimit="4" stroke-width="2" d="M16 17.333c3.682 0 6.667-2.985 6.667-6.667s-2.985-6.667-6.667-6.667c-3.682 0-6.667 2.985-6.667 6.667s2.985 6.667 6.667 6.667zM16 17.333v10.667M12 24h8"></path>
</symbol>
<symbol id="icon-male" viewBox="0 0 32 32">
<path fill="none" stroke="#54adff" style="stroke: var(--color4, #54adff)" stroke-linejoin="round" stroke-linecap="round" stroke-miterlimit="4" stroke-width="2" d="M16 14.667c-3.682 0-6.667 2.985-6.667 6.667s2.985 6.667 6.667 6.667c3.682 0 6.667-2.985 6.667-6.667s-2.985-6.667-6.667-6.667zM16 14.667v-10.667M16 4l5.333 5.333M16 4l-5.333 5.333"></path>
</symbol>
<symbol id="icon-cross" viewBox="0 0 32 32">
<path fill="none" stroke="#ef2447" style="stroke: var(--color5, #ef2447)" stroke-linejoin="round" stroke-linecap="round" stroke-miterlimit="4" stroke-width="2.9091" d="M25.333 6.667l-18.667 18.667M6.666 6.667l18.667 18.667"></path>
</symbol>
<symbol id="icon-calendar" viewBox="0 0 32 32">
<path stroke-linejoin="round" stroke-linecap="round" stroke-miterlimit="4" stroke-width="2.88" d="M25.333 5.333h-18.667c-1.473 0-2.667 1.194-2.667 2.667v18.667c0 1.473 1.194 2.667 2.667 2.667h18.667c1.473 0 2.667-1.194 2.667-2.667v-18.667c0-1.473-1.194-2.667-2.667-2.667z"></path>
<path stroke-linejoin="round" stroke-linecap="round" stroke-miterlimit="4" stroke-width="2.88" d="M21.333 2.667v5.333"></path>
<path stroke-linejoin="round" stroke-linecap="round" stroke-miterlimit="4" stroke-width="2.88" d="M10.667 2.667v5.333"></path>
<path stroke-linejoin="round" stroke-linecap="round" stroke-miterlimit="4" stroke-width="2.88" d="M4 13.333h24"></path>
</symbol>
<symbol id="icon-chevron-down" viewBox="0 0 32 32">
<path stroke-linejoin="round" stroke-linecap="round" stroke-miterlimit="4" stroke-width="3.5556" d="M8 12l8 8 8-8"></path>
</symbol>
<symbol id="icon-eye" viewBox="0 0 32 32">
<path fill="none" stroke="#f6b83d" style="stroke: var(--color6, #f6b83d)" stroke-linejoin="round" stroke-linecap="round" stroke-miterlimit="4" stroke-width="2.9091" d="M1.332 16c0 0 5.333-10.667 14.667-10.667s14.667 10.667 14.667 10.667-5.333 10.667-14.667 10.667c-9.333 0-14.667-10.667-14.667-10.667z"></path>
<path fill="none" stroke="#f6b83d" style="stroke: var(--color6, #f6b83d)" stroke-linejoin="round" stroke-linecap="round" stroke-miterlimit="4" stroke-width="2.9091" d="M16 20c2.209 0 4-1.791 4-4s-1.791-4-4-4c-2.209 0-4 1.791-4 4s1.791 4 4 4z"></path>
</symbol>
<symbol id="icon-eye-off" viewBox="0 0 32 32">
<path fill="none" stroke="#f6b83d" style="stroke: var(--color6, #f6b83d)" stroke-linejoin="round" stroke-linecap="round" stroke-miterlimit="4" stroke-width="2.9091" d="M23.922 23.92c-2.279 1.737-5.055 2.7-7.92 2.747-9.333 0-14.667-10.667-14.667-10.667 1.659-3.091 3.959-5.791 6.747-7.92M13.202 5.653c0.918-0.215 1.857-0.322 2.8-0.32 9.333 0 14.667 10.667 14.667 10.667-0.809 1.514-1.775 2.94-2.88 4.253M18.828 18.827c-0.366 0.393-0.808 0.708-1.298 0.927s-1.020 0.336-1.557 0.346c-0.537 0.009-1.071-0.089-1.569-0.291s-0.951-0.5-1.33-0.88c-0.38-0.38-0.679-0.832-0.88-1.33s-0.3-1.032-0.29-1.569c0.009-0.537 0.127-1.067 0.346-1.557s0.534-0.932 0.927-1.298"></path>
<path fill="none" stroke="#f6b83d" style="stroke: var(--color6, #f6b83d)" stroke-linejoin="round" stroke-linecap="round" stroke-miterlimit="4" stroke-width="2.9091" d="M1.335 1.333l29.333 29.333"></path>
</symbol>
<symbol id="icon-search" viewBox="0 0 32 32">
<path stroke-linejoin="round" stroke-linecap="round" stroke-miterlimit="4" stroke-width="3.5556" d="M14.667 25.333c5.891 0 10.667-4.776 10.667-10.667s-4.776-10.667-10.667-10.667c-5.891 0-10.667 4.776-10.667 10.667s4.776 10.667 10.667 10.667z"></path>
<path stroke-linejoin="round" stroke-linecap="round" stroke-miterlimit="4" stroke-width="3.5556" d="M28.001 28l-5.8-5.8"></path>
</symbol>
<symbol id="icon-user" viewBox="0 0 32 32">
<path fill="#f6b83d" style="fill: var(--color6, #f6b83d); stroke: var(--color6, #f6b83d)" stroke="#f6b83d" stroke-linejoin="round" stroke-linecap="round" stroke-miterlimit="4" stroke-width="2.6667" d="M16 20c-4.227 0-7.986 2.041-10.379 5.208-0.515 0.682-0.773 1.022-0.764 1.483 0.006 0.356 0.23 0.805 0.51 1.025 0.362 0.284 0.865 0.284 1.869 0.284h17.527c1.005 0 1.507 0 1.869-0.284 0.28-0.22 0.503-0.669 0.51-1.025 0.008-0.461-0.249-0.801-0.764-1.483-2.393-3.167-6.152-5.208-10.379-5.208z"></path>
<path fill="#f6b83d" style="fill: var(--color6, #f6b83d); stroke: var(--color6, #f6b83d)" stroke="#f6b83d" stroke-linejoin="round" stroke-linecap="round" stroke-miterlimit="4" stroke-width="2.6667" d="M16 16c3.314 0 6-2.686 6-6s-2.686-6-6-6c-3.314 0-6 2.686-6 6s2.686 6 6 6z"></path>
</symbol>
<symbol id="icon-logo-header-home" viewBox="0 0 106 32">
<path fill="#fff" style="fill: var(--color7, #fff)" d="M9.38 25.42c-1.503 0-2.758-0.35-3.766-1.050s-1.769-1.652-2.282-2.856c-0.504-1.204-0.756-2.562-0.756-4.074s0.252-2.87 0.756-4.074c0.504-1.204 1.246-2.156 2.226-2.856s2.189-1.050 3.626-1.050c1.447 0 2.707 0.345 3.78 1.036s1.904 1.638 2.492 2.842c0.597 1.195 0.896 2.562 0.896 4.102 0 1.512-0.294 2.87-0.882 4.074-0.579 1.204-1.391 2.156-2.436 2.856s-2.263 1.050-3.654 1.050zM1.932 31.72v-21.84h3.36v10.36h0.476v11.48h-3.836zM8.764 22.032c0.821 0 1.493-0.205 2.016-0.616s0.91-0.961 1.162-1.652c0.252-0.7 0.378-1.475 0.378-2.324 0-0.84-0.131-1.605-0.392-2.296-0.261-0.7-0.667-1.255-1.218-1.666-0.541-0.42-1.237-0.63-2.086-0.63-0.793 0-1.437 0.191-1.932 0.574-0.485 0.383-0.84 0.919-1.064 1.61s-0.336 1.493-0.336 2.408c0 0.915 0.112 1.717 0.336 2.408s0.588 1.227 1.092 1.61c0.513 0.383 1.195 0.574 2.044 0.574zM25.341 25.42c-1.549 0-2.917-0.331-4.102-0.994-1.176-0.672-2.1-1.591-2.772-2.758-0.663-1.176-0.994-2.52-0.994-4.032 0-1.652 0.327-3.089 0.98-4.312s1.554-2.17 2.702-2.842c1.148-0.681 2.469-1.022 3.962-1.022 1.587 0 2.935 0.373 4.046 1.12s1.932 1.797 2.464 3.15 0.719 2.945 0.56 4.774h-3.766v-1.4c0-1.54-0.247-2.646-0.742-3.318-0.485-0.681-1.283-1.022-2.394-1.022-1.297 0-2.254 0.397-2.87 1.19-0.607 0.784-0.91 1.946-0.91 3.486 0 1.409 0.303 2.501 0.91 3.276 0.616 0.765 1.517 1.148 2.702 1.148 0.747 0 1.386-0.163 1.918-0.49s0.938-0.798 1.218-1.414l3.808 1.092c-0.569 1.381-1.47 2.455-2.702 3.22-1.223 0.765-2.562 1.148-4.018 1.148zM20.329 18.504v-2.828h10.024v2.828h-10.024zM43.3 25c-1.045 0.196-2.072 0.28-3.080 0.252-0.999-0.019-1.895-0.191-2.688-0.518-0.784-0.336-1.381-0.873-1.792-1.61-0.373-0.691-0.569-1.391-0.588-2.1-0.019-0.719-0.028-1.531-0.028-2.436v-12.908h3.808v12.684c0 0.588 0.005 1.12 0.014 1.596 0.019 0.467 0.117 0.84 0.294 1.12 0.336 0.532 0.873 0.821 1.61 0.868s1.554 0.009 2.45-0.112v3.164zM32.548 12.82v-2.94h10.752v2.94h-10.752zM45.829 25v-20.58h3.808v20.58h-3.808z"></path>
<path fill="#fff" style="fill: var(--color7, #fff)" d="M63.493 10.434c-1.839-2.172-4.907-2.756-7.211-0.767s-2.629 5.314-0.819 7.666c1.159 1.506 4.128 4.3 6.113 6.114 0.66 0.603 0.989 0.904 1.384 1.025 0.34 0.104 0.728 0.104 1.067 0 0.395-0.121 0.725-0.422 1.384-1.025 1.985-1.814 4.954-4.608 6.113-6.114 1.81-2.352 1.525-5.698-0.819-7.666s-5.372-1.405-7.211 0.767z"></path>
<path fill="#fff" style="fill: var(--color7, #fff)" d="M81.048 25l-5.488-15.12h3.374l3.808 10.962 3.794-10.962h3.388l-5.488 15.12h-3.388zM97.644 25.42c-1.531 0-2.875-0.331-4.032-0.994s-2.063-1.582-2.716-2.758c-0.644-1.176-0.966-2.529-0.966-4.060 0-1.652 0.317-3.085 0.952-4.298 0.635-1.223 1.517-2.17 2.646-2.842s2.436-1.008 3.92-1.008c1.568 0 2.898 0.369 3.99 1.106 1.101 0.728 1.918 1.759 2.45 3.094s0.732 2.907 0.602 4.718h-3.346v-1.232c-0.010-1.643-0.299-2.842-0.868-3.598s-1.466-1.134-2.688-1.134c-1.381 0-2.408 0.429-3.080 1.288-0.672 0.849-1.008 2.095-1.008 3.738 0 1.531 0.336 2.716 1.008 3.556s1.652 1.26 2.94 1.26c0.831 0 1.545-0.182 2.142-0.546 0.606-0.373 1.073-0.91 1.4-1.61l3.332 1.008c-0.579 1.363-1.475 2.422-2.688 3.178-1.204 0.756-2.534 1.134-3.99 1.134zM92.436 18.378v-2.548h10.402v2.548h-10.402z"></path>
</symbol>
<symbol id="icon-logo-header" viewBox="0 0 106 32">
<path fill="#262626" style="fill: var(--color8, #262626)" d="M9.169 25.461c-1.466 0-2.694-0.348-3.687-1.043s-1.739-1.642-2.24-2.838c-0.501-1.206-0.751-2.555-0.751-4.049 0-1.512 0.25-2.866 0.751-4.063s1.234-2.138 2.198-2.824c0.974-0.696 2.175-1.043 3.603-1.043 1.419 0 2.648 0.348 3.687 1.043 1.048 0.686 1.86 1.628 2.435 2.824 0.575 1.187 0.863 2.542 0.863 4.063 0 1.503-0.283 2.852-0.849 4.049s-1.363 2.143-2.393 2.838c-1.030 0.696-2.235 1.043-3.617 1.043zM1.92 31.722v-21.704h2.963v10.546h0.417v11.158h-3.381zM8.654 22.456c0.872 0 1.591-0.218 2.157-0.654s0.983-1.025 1.252-1.767c0.278-0.751 0.417-1.586 0.417-2.504 0-0.909-0.139-1.735-0.417-2.477-0.278-0.751-0.71-1.345-1.294-1.781-0.584-0.445-1.326-0.668-2.226-0.668-0.853 0-1.549 0.209-2.087 0.626-0.538 0.408-0.937 0.983-1.197 1.725-0.25 0.733-0.376 1.591-0.376 2.574 0 0.974 0.125 1.832 0.376 2.574 0.26 0.742 0.663 1.322 1.21 1.739 0.557 0.408 1.285 0.612 2.184 0.612zM24.813 25.461c-1.521 0-2.857-0.329-4.007-0.988s-2.050-1.572-2.699-2.741c-0.64-1.169-0.96-2.514-0.96-4.035 0-1.642 0.315-3.065 0.946-4.271 0.631-1.215 1.507-2.157 2.63-2.824s2.421-1.002 3.896-1.002c1.558 0 2.88 0.366 3.965 1.099 1.095 0.723 1.906 1.748 2.435 3.075s0.728 2.889 0.598 4.689h-3.325v-1.224c-0.009-1.632-0.297-2.824-0.863-3.576s-1.456-1.127-2.671-1.127c-1.373 0-2.393 0.427-3.061 1.28-0.668 0.844-1.002 2.082-1.002 3.715 0 1.521 0.334 2.699 1.002 3.534s1.642 1.252 2.922 1.252c0.826 0 1.535-0.181 2.129-0.543 0.603-0.371 1.067-0.904 1.391-1.6l3.311 1.002c-0.575 1.354-1.465 2.407-2.671 3.158-1.197 0.751-2.518 1.127-3.965 1.127zM19.637 18.463v-2.532h10.337v2.532h-10.337zM42.415 25.043c-0.993 0.185-1.966 0.264-2.922 0.237-0.946-0.018-1.795-0.19-2.546-0.515-0.751-0.334-1.322-0.858-1.711-1.572-0.343-0.649-0.524-1.312-0.543-1.99s-0.028-1.442-0.028-2.296v-13.064h3.339v12.87c0 0.603 0.005 1.132 0.014 1.586 0.019 0.455 0.116 0.825 0.292 1.113 0.334 0.557 0.867 0.867 1.6 0.932s1.567 0.028 2.504-0.111v2.81zM31.938 12.647v-2.63h10.477v2.63h-10.477zM44.811 25.043v-20.452h3.353v20.452h-3.353z"></path>
<path fill="#f6b83d" style="fill: var(--color6, #f6b83d)" d="M63.298 9.762c-1.891-2.233-5.046-2.834-7.416-0.789s-2.704 5.464-0.843 7.883c1.192 1.549 4.245 4.422 6.286 6.287 0.678 0.62 1.017 0.93 1.424 1.054 0.349 0.107 0.748 0.107 1.097 0 0.406-0.124 0.745-0.434 1.424-1.054 2.041-1.865 5.094-4.738 6.286-6.287 1.861-2.419 1.568-5.86-0.842-7.883s-5.524-1.444-7.416 0.789z"></path>
<path fill="#262626" style="fill: var(--color8, #262626)" d="M81.141 25.043l-5.454-15.026h3.353l3.784 10.894 3.77-10.894h3.367l-5.454 15.026h-3.367zM97.634 25.461c-1.521 0-2.857-0.329-4.007-0.988s-2.050-1.572-2.699-2.741c-0.64-1.169-0.96-2.514-0.96-4.035 0-1.642 0.315-3.065 0.946-4.271 0.631-1.215 1.507-2.157 2.63-2.824s2.421-1.002 3.896-1.002c1.558 0 2.88 0.366 3.965 1.099 1.094 0.723 1.906 1.748 2.435 3.075s0.728 2.889 0.598 4.689h-3.325v-1.224c-0.009-1.632-0.297-2.824-0.863-3.576s-1.456-1.127-2.671-1.127c-1.373 0-2.393 0.427-3.061 1.28-0.668 0.844-1.002 2.082-1.002 3.715 0 1.521 0.334 2.699 1.002 3.534s1.642 1.252 2.922 1.252c0.825 0 1.535-0.181 2.129-0.543 0.603-0.371 1.067-0.904 1.391-1.6l3.311 1.002c-0.575 1.354-1.466 2.407-2.671 3.158-1.197 0.751-2.518 1.127-3.965 1.127zM92.458 18.463v-2.532h10.337v2.532h-10.337z"></path>
</symbol>
<symbol id="icon-edit" viewBox="0 0 32 32">
<path fill="none" stroke="#f6b83d" style="stroke: var(--color6, #f6b83d)" stroke-linejoin="round" stroke-linecap="round" stroke-miterlimit="4" stroke-width="2.6667" d="M22.667 4c0.35-0.35 0.766-0.628 1.223-0.817s0.948-0.287 1.443-0.287c0.495 0 0.986 0.098 1.443 0.287s0.873 0.467 1.223 0.817c0.35 0.35 0.628 0.766 0.817 1.224s0.287 0.948 0.287 1.443c0 0.495-0.098 0.986-0.287 1.443s-0.467 0.873-0.817 1.223l-18 18-7.333 2 2-7.333 18-18z"></path>
</symbol>
<symbol id="icon-trash" viewBox="0 0 32 32">
<path fill="none" stroke="#f6b83d" style="stroke: var(--color6, #f6b83d)" stroke-linejoin="round" stroke-linecap="round" stroke-miterlimit="4" stroke-width="2.6667" d="M4 8h24"></path>
<path fill="none" stroke="#f6b83d" style="stroke: var(--color6, #f6b83d)" stroke-linejoin="round" stroke-linecap="round" stroke-miterlimit="4" stroke-width="2.6667" d="M25.333 8v18.667c0 0.707-0.281 1.386-0.781 1.886s-1.178 0.781-1.886 0.781h-13.333c-0.707 0-1.386-0.281-1.886-0.781s-0.781-1.178-0.781-1.886v-18.667M10.667 8v-2.667c0-0.707 0.281-1.386 0.781-1.886s1.178-0.781 1.886-0.781h5.333c0.707 0 1.386 0.281 1.886 0.781s0.781 1.178 0.781 1.886v2.667"></path>
<path fill="none" stroke="#f6b83d" style="stroke: var(--color6, #f6b83d)" stroke-linejoin="round" stroke-linecap="round" stroke-miterlimit="4" stroke-width="2.6667" d="M13.333 14.667v8"></path>
<path fill="none" stroke="#f6b83d" style="stroke: var(--color6, #f6b83d)" stroke-linejoin="round" stroke-linecap="round" stroke-miterlimit="4" stroke-width="2.6667" d="M18.667 14.667v8"></path>
</symbol>
<symbol id="icon-heart" viewBox="0 0 32 32">
<path fill="none" stroke="#f6b83d" style="stroke: var(--color6, #f6b83d)" stroke-linejoin="round" stroke-linecap="round" stroke-miterlimit="4" stroke-width="2.6667" d="M27.788 6.147c-0.681-0.681-1.49-1.222-2.38-1.591s-1.844-0.559-2.807-0.559c-0.963 0-1.917 0.19-2.807 0.559s-1.699 0.909-2.38 1.591l-1.413 1.413-1.413-1.413c-1.376-1.376-3.241-2.148-5.187-2.148s-3.811 0.773-5.187 2.148c-1.376 1.376-2.148 3.241-2.148 5.187s0.773 3.811 2.148 5.187l11.787 11.787 11.787-11.787c0.681-0.681 1.222-1.49 1.591-2.38s0.558-1.844 0.558-2.807-0.19-1.917-0.558-2.807c-0.369-0.89-0.909-1.699-1.591-2.38z"></path>
</symbol>
<symbol id="icon-angle" viewBox="0 0 32 32">
<path d="M14.134 16.947c-0.125-0.124-0.224-0.271-0.292-0.434s-0.103-0.337-0.103-0.513 0.035-0.35 0.103-0.513c0.068-0.162 0.167-0.31 0.292-0.434l6.12-6.107c0.125-0.124 0.224-0.271 0.292-0.434s0.103-0.337 0.103-0.513-0.035-0.35-0.103-0.513c-0.068-0.162-0.167-0.31-0.292-0.434-0.25-0.248-0.588-0.388-0.94-0.388s-0.69 0.139-0.94 0.388l-6.12 6.12c-0.749 0.75-1.17 1.767-1.17 2.827s0.421 2.077 1.17 2.827l6.12 6.12c0.248 0.246 0.584 0.385 0.933 0.387 0.175 0.001 0.349-0.033 0.512-0.099s0.31-0.164 0.435-0.288c0.125-0.124 0.224-0.271 0.292-0.434s0.103-0.337 0.103-0.513-0.035-0.35-0.103-0.513c-0.068-0.162-0.167-0.31-0.292-0.434l-6.12-6.107z"></path>
</symbol>
<symbol id="icon-multiple" viewBox="0 0 32 32">
<path fill="#f6b83d" style="fill: var(--color6, #f6b83d)" d="M11.694 10.327c-0.957-0.374-2.010-0.421-2.997-0.135s-1.851 0.89-2.459 1.718c-0.608 0.828-0.926 1.833-0.905 2.86s0.382 2.018 1.024 2.82 1.532 1.369 2.529 1.613c0.998 0.245 2.048 0.153 2.988-0.261s1.718-1.126 2.212-2.026c0.494-0.901 0.677-1.939 0.52-2.954-0.013-0.087-0.009-0.175 0.011-0.26s0.058-0.165 0.11-0.236c0.052-0.071 0.117-0.13 0.192-0.176s0.158-0.076 0.244-0.089 0.175-0.009 0.26 0.011c0.085 0.021 0.165 0.058 0.236 0.11s0.13 0.117 0.176 0.192c0.045 0.075 0.076 0.158 0.089 0.244 0.201 1.305-0.034 2.64-0.67 3.798s-1.635 2.073-2.844 2.605c-1.209 0.531-2.559 0.649-3.842 0.335s-2.426-1.044-3.252-2.074c-0.826-1.031-1.289-2.305-1.316-3.625s0.381-2.613 1.163-3.677 1.893-1.841 3.162-2.209c1.268-0.368 2.623-0.307 3.853 0.173 0.083 0.031 0.158 0.078 0.223 0.139s0.116 0.133 0.152 0.214c0.036 0.081 0.056 0.168 0.058 0.256s-0.013 0.176-0.045 0.258c-0.032 0.082-0.080 0.157-0.142 0.221s-0.135 0.114-0.216 0.149c-0.081 0.035-0.168 0.053-0.257 0.054s-0.176-0.015-0.258-0.048z"></path>
<path fill="#f6b83d" style="fill: var(--color6, #f6b83d)" d="M9.331 26v-5.331c0-0.177 0.070-0.346 0.195-0.471s0.294-0.195 0.471-0.195c0.177 0 0.346 0.070 0.471 0.195s0.195 0.295 0.195 0.471v5.331c0 0.177-0.070 0.346-0.195 0.471s-0.294 0.195-0.471 0.195c-0.177 0-0.346-0.070-0.471-0.195s-0.195-0.294-0.195-0.471z"></path>
<path fill="#f6b83d" style="fill: var(--color6, #f6b83d)" d="M7.332 22.668c0-0.177 0.070-0.346 0.195-0.471s0.294-0.195 0.471-0.195h3.998c0.177 0 0.346 0.070 0.471 0.195s0.195 0.295 0.195 0.471c0 0.177-0.070 0.346-0.195 0.471s-0.294 0.195-0.471 0.195h-3.998c-0.177 0-0.346-0.070-0.471-0.195s-0.195-0.294-0.195-0.471zM19.262 10.182c-0.739-0.209-1.517-0.232-2.267-0.067s-1.447 0.511-2.030 1.010-1.035 1.133-1.315 1.848c-0.28 0.715-0.379 1.487-0.288 2.249 0.011 0.087 0.004 0.176-0.019 0.26s-0.063 0.164-0.118 0.233c-0.054 0.069-0.121 0.127-0.198 0.17s-0.161 0.071-0.248 0.081c-0.087 0.010-0.176 0.003-0.26-0.021s-0.163-0.064-0.232-0.119-0.126-0.122-0.169-0.199c-0.043-0.077-0.070-0.161-0.080-0.249-0.156-1.311 0.126-2.638 0.801-3.773s1.706-2.016 2.933-2.505c1.227-0.489 2.58-0.56 3.851-0.201s2.388 1.127 3.178 2.185c0.79 1.059 1.208 2.348 1.19 3.669s-0.471 2.598-1.29 3.635-1.956 1.774-3.236 2.098c-1.28 0.324-2.632 0.216-3.845-0.307-0.080-0.035-0.153-0.085-0.214-0.147s-0.109-0.137-0.141-0.218c-0.065-0.164-0.063-0.348 0.007-0.51s0.201-0.29 0.366-0.356c0.164-0.065 0.348-0.063 0.51 0.007 0.586 0.253 1.218 0.382 1.857 0.381s1.27-0.134 1.855-0.389c0.585-0.255 1.112-0.628 1.547-1.095s0.77-1.018 0.983-1.62c0.214-0.602 0.301-1.241 0.258-1.878s-0.217-1.258-0.51-1.825-0.7-1.068-1.194-1.472c-0.495-0.404-1.067-0.701-1.681-0.875z"></path>
<path fill="#f6b83d" style="fill: var(--color6, #f6b83d)" d="M21.855 11.477c-0.125-0.125-0.195-0.294-0.195-0.471s0.070-0.346 0.195-0.471l4.998-4.998c0.061-0.064 0.135-0.114 0.216-0.149s0.169-0.053 0.257-0.054c0.088-0.001 0.176 0.016 0.258 0.050s0.156 0.083 0.219 0.146c0.063 0.063 0.112 0.137 0.146 0.219s0.050 0.17 0.050 0.258c-0.001 0.088-0.019 0.176-0.054 0.257s-0.086 0.155-0.149 0.216l-4.998 4.998c-0.125 0.125-0.295 0.195-0.471 0.195s-0.346-0.070-0.471-0.195z"></path>
<path fill="#f6b83d" style="fill: var(--color6, #f6b83d)" d="M27.273 10.007c-0.088-0.001-0.174-0.020-0.254-0.054s-0.153-0.085-0.214-0.147c-0.061-0.063-0.109-0.137-0.142-0.218s-0.049-0.168-0.047-0.256l0.033-2.648-2.648 0.033c-0.177 0.002-0.347-0.066-0.474-0.189s-0.199-0.292-0.201-0.469 0.066-0.347 0.189-0.474c0.123-0.127 0.292-0.199 0.469-0.201l4.016-0.051-0.051 4.016c-0.001 0.088-0.019 0.174-0.054 0.254s-0.085 0.153-0.147 0.214c-0.063 0.061-0.137 0.109-0.218 0.142s-0.168 0.049-0.256 0.047z"></path>
</symbol>
<symbol id="icon-logo-main" viewBox="0 0 107 32">
<path fill="#fff" style="fill: var(--color7, #fff)" d="M9.414 25.571c-1.505 0-2.767-0.357-3.786-1.071s-1.786-1.686-2.3-2.914c-0.514-1.238-0.771-2.624-0.771-4.157 0-1.552 0.257-2.943 0.771-4.171s1.267-2.195 2.257-2.9c1-0.714 2.233-1.071 3.7-1.071 1.457 0 2.719 0.357 3.786 1.071 1.076 0.705 1.909 1.671 2.5 2.9 0.59 1.219 0.886 2.61 0.886 4.171 0 1.543-0.291 2.929-0.871 4.157s-1.4 2.2-2.457 2.914c-1.057 0.714-2.295 1.071-3.714 1.071zM1.971 32v-22.286h3.043v10.829h0.429v11.457h-3.471zM8.886 22.486c0.895 0 1.633-0.224 2.214-0.671s1.009-1.052 1.286-1.814c0.286-0.771 0.429-1.629 0.429-2.571 0-0.933-0.143-1.781-0.429-2.543-0.286-0.771-0.729-1.381-1.329-1.829-0.6-0.457-1.362-0.686-2.286-0.686-0.876 0-1.591 0.214-2.143 0.643-0.552 0.419-0.962 1.009-1.229 1.771-0.257 0.752-0.386 1.633-0.386 2.643 0 1 0.129 1.881 0.386 2.643 0.267 0.762 0.681 1.357 1.243 1.786 0.571 0.419 1.319 0.629 2.243 0.629zM25.477 25.571c-1.562 0-2.933-0.338-4.114-1.014s-2.105-1.614-2.771-2.814c-0.657-1.2-0.986-2.581-0.986-4.143 0-1.686 0.324-3.148 0.971-4.386 0.648-1.248 1.548-2.214 2.7-2.9s2.486-1.029 4-1.029c1.6 0 2.957 0.376 4.071 1.129 1.124 0.743 1.957 1.795 2.5 3.157s0.748 2.967 0.614 4.814h-3.414v-1.257c-0.009-1.676-0.305-2.9-0.886-3.671s-1.495-1.157-2.743-1.157c-1.41 0-2.457 0.438-3.143 1.314-0.686 0.867-1.029 2.138-1.029 3.814 0 1.562 0.343 2.771 1.029 3.629s1.686 1.286 3 1.286c0.848 0 1.576-0.186 2.186-0.557 0.619-0.381 1.095-0.929 1.429-1.643l3.4 1.029c-0.591 1.39-1.505 2.471-2.743 3.243-1.229 0.771-2.586 1.157-4.071 1.157zM20.163 18.386v-2.6h10.614v2.6h-10.614zM43.551 25.143c-1.019 0.191-2.019 0.271-3 0.243-0.971-0.019-1.843-0.195-2.614-0.529-0.771-0.343-1.357-0.881-1.757-1.614-0.352-0.667-0.538-1.348-0.557-2.043s-0.029-1.481-0.029-2.357v-13.414h3.429v13.214c0 0.619 0.005 1.162 0.014 1.629 0.019 0.467 0.119 0.848 0.3 1.143 0.343 0.571 0.891 0.89 1.643 0.957s1.61 0.029 2.571-0.114v2.886zM32.793 12.414v-2.7h10.757v2.7h-10.757zM46.011 25.143v-21h3.443v21h-3.443z"></path>
<path fill="#f6b83d" style="fill: var(--color6, #f6b83d)" d="M63.708 10.679c-1.874-2.212-4.998-2.807-7.346-0.782s-2.678 5.413-0.835 7.809c1.181 1.535 4.205 4.38 6.227 6.228 0.672 0.614 1.008 0.921 1.41 1.044 0.346 0.106 0.741 0.106 1.087 0 0.402-0.123 0.738-0.43 1.41-1.044 2.022-1.848 5.046-4.693 6.227-6.228 1.843-2.396 1.553-5.804-0.835-7.809s-5.472-1.431-7.346 0.782z"></path>
<path fill="#fff" style="fill: var(--color7, #fff)" d="M81.6 25.143l-5.6-15.429h3.443l3.886 11.186 3.871-11.186h3.457l-5.6 15.429h-3.457zM98.534 25.571c-1.562 0-2.933-0.338-4.114-1.014s-2.105-1.614-2.771-2.814c-0.657-1.2-0.986-2.581-0.986-4.143 0-1.686 0.324-3.148 0.971-4.386 0.648-1.248 1.548-2.214 2.7-2.9s2.486-1.029 4-1.029c1.6 0 2.957 0.376 4.071 1.129 1.124 0.743 1.957 1.795 2.5 3.157s0.748 2.967 0.614 4.814h-3.414v-1.257c-0.009-1.676-0.305-2.9-0.886-3.671s-1.495-1.157-2.743-1.157c-1.409 0-2.457 0.438-3.143 1.314-0.686 0.867-1.029 2.138-1.029 3.814 0 1.562 0.343 2.771 1.029 3.629s1.686 1.286 3 1.286c0.848 0 1.576-0.186 2.186-0.557 0.619-0.381 1.095-0.929 1.429-1.643l3.4 1.029c-0.59 1.39-1.505 2.471-2.743 3.243-1.229 0.771-2.586 1.157-4.071 1.157zM93.22 18.386v-2.6h10.614v2.6h-10.614z"></path>
</symbol>
<symbol id="icon-close" viewBox="0 0 32 32">
<path stroke-linejoin="round" stroke-linecap="round" stroke-miterlimit="4" stroke-width="2.6667" d="M24 8l-16 16"></path>
<path stroke-linejoin="round" stroke-linecap="round" stroke-miterlimit="4" stroke-width="2.6667" d="M8 8l16 16"></path>
</symbol>
<symbol id="icon-menu" viewBox="0 0 24 24">
<path d="M3 13h18c0.552 0 1-0.448 1-1s-0.448-1-1-1h-18c-0.552 0-1 0.448-1 1s0.448 1 1 1zM3 7h18c0.552 0 1-0.448 1-1s-0.448-1-1-1h-18c-0.552 0-1 0.448-1 1s0.448 1 1 1zM3 19h18c0.552 0 1-0.448 1-1s-0.448-1-1-1h-18c-0.552 0-1 0.448-1 1s0.448 1 1 1z"></path>
</symbol>
<symbol id="icon-upload-cloud" viewBox="0 0 32 32">
<path fill="none" stroke="#f6b83d" style="stroke: var(--color1, #f6b83d)" stroke-linejoin="round" stroke-linecap="round" stroke-miterlimit="4" stroke-width="2.3111" d="M16 16v12"></path>
<path fill="none" stroke="#f6b83d" style="stroke: var(--color1, #f6b83d)" stroke-linejoin="round" stroke-linecap="round" stroke-miterlimit="4" stroke-width="2.3111" d="M27.187 24.52c1.3-0.709 2.328-1.831 2.92-3.188s0.715-2.874 0.35-4.309c-0.365-1.435-1.198-2.708-2.367-3.618s-2.608-1.404-4.089-1.405h-1.68c-0.404-1.561-1.156-3.010-2.2-4.239s-2.353-2.204-3.829-2.854-3.079-0.956-4.691-0.897c-1.611 0.059-3.188 0.483-4.612 1.24s-2.658 1.826-3.609 3.128c-0.951 1.302-1.595 2.803-1.882 4.389s-0.212 3.217 0.222 4.77c0.433 1.553 1.213 2.987 2.281 4.196"></path>
<path fill="none" stroke="#f6b83d" style="stroke: var(--color1, #f6b83d)" stroke-linejoin="round" stroke-linecap="round" stroke-miterlimit="4" stroke-width="2.3111" d="M21.333 21.333l-5.333-5.333-5.333 5.333"></path>
</symbol>
</defs>
</svg>
