<svg xmlns="http://www.w3.org/2000/svg" viewBox="0 0 100 100" preserveAspectRatio="xMidYMid" width="450" height="450" style="shape-rendering:auto;display:block;background:0 0"><rect fill="rgba(255, 255, 255, 0.206)" height="1" width="10" ry=".5" rx="5" y="29.5" x="45"><animate repeatCount="indefinite" begin="-1.0394736842105263s" dur="1.0526315789473684s" keyTimes="0;1" values="1;0" attributeName="opacity"/></rect><rect fill="rgba(255, 255, 255, 0.206)" height="1" width="10" ry=".5" rx="5" y="29.5" x="45" transform="rotate(4.5 50 50)"><animate repeatCount="indefinite" begin="-1.0263157894736843s" dur="1.0526315789473684s" keyTimes="0;1" values="1;0" attributeName="opacity"/></rect><rect fill="rgba(255, 255, 255, 0.206)" height="1" width="10" ry=".5" rx="5" y="29.5" x="45" transform="rotate(9 50 50)"><animate repeatCount="indefinite" begin="-1.013157894736842s" dur="1.0526315789473684s" keyTimes="0;1" values="1;0" attributeName="opacity"/></rect><rect fill="rgba(255, 255, 255, 0.206)" height="1" width="10" ry=".5" rx="5" y="29.5" x="45" transform="rotate(13.5 50 50)"><animate repeatCount="indefinite" begin="-1s" dur="1.0526315789473684s" keyTimes="0;1" values="1;0" attributeName="opacity"/></rect><rect fill="rgba(255, 255, 255, 0.206)" height="1" width="10" ry=".5" rx="5" y="29.5" x="45" transform="rotate(18 50 50)"><animate repeatCount="indefinite" begin="-0.9868421052631579s" dur="1.0526315789473684s" keyTimes="0;1" values="1;0" attributeName="opacity"/></rect><rect fill="rgba(255, 255, 255, 0.206)" height="1" width="10" ry=".5" rx="5" y="29.5" x="45" transform="rotate(22.5 50 50)"><animate repeatCount="indefinite" begin="-0.9736842105263158s" dur="1.0526315789473684s" keyTimes="0;1" values="1;0" attributeName="opacity"/></rect><rect fill="rgba(255, 255, 255, 0.206)" height="1" width="10" ry=".5" rx="5" y="29.5" x="45" transform="rotate(27 50 50)"><animate repeatCount="indefinite" begin="-0.9605263157894737s" dur="1.0526315789473684s" keyTimes="0;1" values="1;0" attributeName="opacity"/></rect><rect fill="rgba(255, 255, 255, 0.206)" height="1" width="10" ry=".5" rx="5" y="29.5" x="45" transform="rotate(31.5 50 50)"><animate repeatCount="indefinite" begin="-0.9473684210526315s" dur="1.0526315789473684s" keyTimes="0;1" values="1;0" attributeName="opacity"/></rect><rect fill="rgba(255, 255, 255, 0.206)" height="1" width="10" ry=".5" rx="5" y="29.5" x="45" transform="rotate(36 50 50)"><animate repeatCount="indefinite" begin="-0.9342105263157895s" dur="1.0526315789473684s" keyTimes="0;1" values="1;0" attributeName="opacity"/></rect><rect fill="rgba(255, 255, 255, 0.206)" height="1" width="10" ry=".5" rx="5" y="29.5" x="45" transform="rotate(40.5 50 50)"><animate repeatCount="indefinite" begin="-0.9210526315789473s" dur="1.0526315789473684s" keyTimes="0;1" values="1;0" attributeName="opacity"/></rect><rect fill="rgba(255, 255, 255, 0.206)" height="1" width="10" ry=".5" rx="5" y="29.5" x="45" transform="rotate(45 50 50)"><animate repeatCount="indefinite" begin="-0.9078947368421053s" dur="1.0526315789473684s" keyTimes="0;1" values="1;0" attributeName="opacity"/></rect><rect fill="rgba(255, 255, 255, 0.206)" height="1" width="10" ry=".5" rx="5" y="29.5" x="45" transform="rotate(49.5 50 50)"><animate repeatCount="indefinite" begin="-0.8947368421052632s" dur="1.0526315789473684s" keyTimes="0;1" values="1;0" attributeName="opacity"/></rect><rect fill="rgba(255, 255, 255, 0.206)" height="1" width="10" ry=".5" rx="5" y="29.5" x="45" transform="rotate(54 50 50)"><animate repeatCount="indefinite" begin="-0.881578947368421s" dur="1.0526315789473684s" keyTimes="0;1" values="1;0" attributeName="opacity"/></rect><rect fill="rgba(255, 255, 255, 0.206)" height="1" width="10" ry=".5" rx="5" y="29.5" x="45" transform="rotate(58.5 50 50)"><animate repeatCount="indefinite" begin="-0.868421052631579s" dur="1.0526315789473684s" keyTimes="0;1" values="1;0" attributeName="opacity"/></rect><rect fill="rgba(255, 255, 255, 0.206)" height="1" width="10" ry=".5" rx="5" y="29.5" x="45" transform="rotate(63 50 50)"><animate repeatCount="indefinite" begin="-0.8552631578947368s" dur="1.0526315789473684s" keyTimes="0;1" values="1;0" attributeName="opacity"/></rect><rect fill="rgba(255, 255, 255, 0.206)" height="1" width="10" ry=".5" rx="5" y="29.5" x="45" transform="rotate(67.5 50 50)"><animate repeatCount="indefinite" begin="-0.8421052631578947s" dur="1.0526315789473684s" keyTimes="0;1" values="1;0" attributeName="opacity"/></rect><rect fill="rgba(255, 255, 255, 0.206)" height="1" width="10" ry=".5" rx="5" y="29.5" x="45" transform="rotate(72 50 50)"><animate repeatCount="indefinite" begin="-0.8289473684210527s" dur="1.0526315789473684s" keyTimes="0;1" values="1;0" attributeName="opacity"/></rect><rect fill="rgba(255, 255, 255, 0.206)" height="1" width="10" ry=".5" rx="5" y="29.5" x="45" transform="rotate(76.5 50 50)"><animate repeatCount="indefinite" begin="-0.8157894736842105s" dur="1.0526315789473684s" keyTimes="0;1" values="1;0" attributeName="opacity"/></rect><rect fill="rgba(255, 255, 255, 0.206)" height="1" width="10" ry=".5" rx="5" y="29.5" x="45" transform="rotate(81 50 50)"><animate repeatCount="indefinite" begin="-0.8026315789473685s" dur="1.0526315789473684s" keyTimes="0;1" values="1;0" attributeName="opacity"/></rect><rect fill="rgba(255, 255, 255, 0.206)" height="1" width="10" ry=".5" rx="5" y="29.5" x="45" transform="rotate(85.5 50 50)"><animate repeatCount="indefinite" begin="-0.7894736842105263s" dur="1.0526315789473684s" keyTimes="0;1" values="1;0" attributeName="opacity"/></rect><rect fill="rgba(255, 255, 255, 0.206)" height="1" width="10" ry=".5" rx="5" y="29.5" x="45" transform="rotate(90 50 50)"><animate repeatCount="indefinite" begin="-0.7763157894736842s" dur="1.0526315789473684s" keyTimes="0;1" values="1;0" attributeName="opacity"/></rect><rect fill="rgba(255, 255, 255, 0.206)" height="1" width="10" ry=".5" rx="5" y="29.5" x="45" transform="rotate(94.5 50 50)"><animate repeatCount="indefinite" begin="-0.7631578947368421s" dur="1.0526315789473684s" keyTimes="0;1" values="1;0" attributeName="opacity"/></rect><rect fill="rgba(255, 255, 255, 0.206)" height="1" width="10" ry=".5" rx="5" y="29.5" x="45" transform="rotate(99 50 50)"><animate repeatCount="indefinite" begin="-0.75s" dur="1.0526315789473684s" keyTimes="0;1" values="1;0" attributeName="opacity"/></rect><rect fill="rgba(255, 255, 255, 0.206)" height="1" width="10" ry=".5" rx="5" y="29.5" x="45" transform="rotate(103.5 50 50)"><animate repeatCount="indefinite" begin="-0.7368421052631579s" dur="1.0526315789473684s" keyTimes="0;1" values="1;0" attributeName="opacity"/></rect><rect fill="rgba(255, 255, 255, 0.206)" height="1" width="10" ry=".5" rx="5" y="29.5" x="45" transform="rotate(108 50 50)"><animate repeatCount="indefinite" begin="-0.7236842105263158s" dur="1.0526315789473684s" keyTimes="0;1" values="1;0" attributeName="opacity"/></rect><rect fill="rgba(255, 255, 255, 0.206)" height="1" width="10" ry=".5" rx="5" y="29.5" x="45" transform="rotate(112.5 50 50)"><animate repeatCount="indefinite" begin="-0.7105263157894737s" dur="1.0526315789473684s" keyTimes="0;1" values="1;0" attributeName="opacity"/></rect><rect fill="rgba(255, 255, 255, 0.206)" height="1" width="10" ry=".5" rx="5" y="29.5" x="45" transform="rotate(117 50 50)"><animate repeatCount="indefinite" begin="-0.6973684210526315s" dur="1.0526315789473684s" keyTimes="0;1" values="1;0" attributeName="opacity"/></rect><rect fill="rgba(255, 255, 255, 0.206)" height="1" width="10" ry=".5" rx="5" y="29.5" x="45" transform="rotate(121.5 50 50)"><animate repeatCount="indefinite" begin="-0.6842105263157895s" dur="1.0526315789473684s" keyTimes="0;1" values="1;0" attributeName="opacity"/></rect><rect fill="rgba(255, 255, 255, 0.206)" height="1" width="10" ry=".5" rx="5" y="29.5" x="45" transform="rotate(126 50 50)"><animate repeatCount="indefinite" begin="-0.6710526315789473s" dur="1.0526315789473684s" keyTimes="0;1" values="1;0" attributeName="opacity"/></rect><rect fill="rgba(255, 255, 255, 0.206)" height="1" width="10" ry=".5" rx="5" y="29.5" x="45" transform="rotate(130.5 50 50)"><animate repeatCount="indefinite" begin="-0.6578947368421053s" dur="1.0526315789473684s" keyTimes="0;1" values="1;0" attributeName="opacity"/></rect><rect fill="rgba(255, 255, 255, 0.206)" height="1" width="10" ry=".5" rx="5" y="29.5" x="45" transform="rotate(135 50 50)"><animate repeatCount="indefinite" begin="-0.6447368421052632s" dur="1.0526315789473684s" keyTimes="0;1" values="1;0" attributeName="opacity"/></rect><rect fill="rgba(255, 255, 255, 0.206)" height="1" width="10" ry=".5" rx="5" y="29.5" x="45" transform="rotate(139.5 50 50)"><animate repeatCount="indefinite" begin="-0.631578947368421s" dur="1.0526315789473684s" keyTimes="0;1" values="1;0" attributeName="opacity"/></rect><rect fill="rgba(255, 255, 255, 0.206)" height="1" width="10" ry=".5" rx="5" y="29.5" x="45" transform="rotate(144 50 50)"><animate repeatCount="indefinite" begin="-0.618421052631579s" dur="1.0526315789473684s" keyTimes="0;1" values="1;0" attributeName="opacity"/></rect><rect fill="rgba(255, 255, 255, 0.206)" height="1" width="10" ry=".5" rx="5" y="29.5" x="45" transform="rotate(148.5 50 50)"><animate repeatCount="indefinite" begin="-0.6052631578947368s" dur="1.0526315789473684s" keyTimes="0;1" values="1;0" attributeName="opacity"/></rect><rect fill="rgba(255, 255, 255, 0.206)" height="1" width="10" ry=".5" rx="5" y="29.5" x="45" transform="rotate(153 50 50)"><animate repeatCount="indefinite" begin="-0.5921052631578947s" dur="1.0526315789473684s" keyTimes="0;1" values="1;0" attributeName="opacity"/></rect><rect fill="rgba(255, 255, 255, 0.206)" height="1" width="10" ry=".5" rx="5" y="29.5" x="45" transform="rotate(157.5 50 50)"><animate repeatCount="indefinite" begin="-0.5789473684210527s" dur="1.0526315789473684s" keyTimes="0;1" values="1;0" attributeName="opacity"/></rect><rect fill="rgba(255, 255, 255, 0.206)" height="1" width="10" ry=".5" rx="5" y="29.5" x="45" transform="rotate(162 50 50)"><animate repeatCount="indefinite" begin="-0.5657894736842105s" dur="1.0526315789473684s" keyTimes="0;1" values="1;0" attributeName="opacity"/></rect><rect fill="rgba(255, 255, 255, 0.206)" height="1" width="10" ry=".5" rx="5" y="29.5" x="45" transform="rotate(166.5 50 50)"><animate repeatCount="indefinite" begin="-0.5526315789473685s" dur="1.0526315789473684s" keyTimes="0;1" values="1;0" attributeName="opacity"/></rect><rect fill="rgba(255, 255, 255, 0.206)" height="1" width="10" ry=".5" rx="5" y="29.5" x="45" transform="rotate(171 50 50)"><animate repeatCount="indefinite" begin="-0.5394736842105263s" dur="1.0526315789473684s" keyTimes="0;1" values="1;0" attributeName="opacity"/></rect><rect fill="rgba(255, 255, 255, 0.206)" height="1" width="10" ry=".5" rx="5" y="29.5" x="45" transform="rotate(175.5 50 50)"><animate repeatCount="indefinite" begin="-0.5263157894736842s" dur="1.0526315789473684s" keyTimes="0;1" values="1;0" attributeName="opacity"/></rect><rect fill="rgba(255, 255, 255, 0.206)" height="1" width="10" ry=".5" rx="5" y="29.5" x="45" transform="rotate(180 50 50)"><animate repeatCount="indefinite" begin="-0.5131578947368421s" dur="1.0526315789473684s" keyTimes="0;1" values="1;0" attributeName="opacity"/></rect><rect fill="rgba(255, 255, 255, 0.206)" height="1" width="10" ry=".5" rx="5" y="29.5" x="45" transform="rotate(184.5 50 50)"><animate repeatCount="indefinite" begin="-0.5s" dur="1.0526315789473684s" keyTimes="0;1" values="1;0" attributeName="opacity"/></rect><rect fill="rgba(255, 255, 255, 0.206)" height="1" width="10" ry=".5" rx="5" y="29.5" x="45" transform="rotate(189 50 50)"><animate repeatCount="indefinite" begin="-0.4868421052631579s" dur="1.0526315789473684s" keyTimes="0;1" values="1;0" attributeName="opacity"/></rect><rect fill="rgba(255, 255, 255, 0.206)" height="1" width="10" ry=".5" rx="5" y="29.5" x="45" transform="rotate(193.5 50 50)"><animate repeatCount="indefinite" begin="-0.47368421052631576s" dur="1.0526315789473684s" keyTimes="0;1" values="1;0" attributeName="opacity"/></rect><rect fill="rgba(255, 255, 255, 0.206)" height="1" width="10" ry=".5" rx="5" y="29.5" x="45" transform="rotate(198 50 50)"><animate repeatCount="indefinite" begin="-0.4605263157894737s" dur="1.0526315789473684s" keyTimes="0;1" values="1;0" attributeName="opacity"/></rect><rect fill="rgba(255, 255, 255, 0.206)" height="1" width="10" ry=".5" rx="5" y="29.5" x="45" transform="rotate(202.5 50 50)"><animate repeatCount="indefinite" begin="-0.4473684210526316s" dur="1.0526315789473684s" keyTimes="0;1" values="1;0" attributeName="opacity"/></rect><rect fill="rgba(255, 255, 255, 0.206)" height="1" width="10" ry=".5" rx="5" y="29.5" x="45" transform="rotate(207 50 50)"><animate repeatCount="indefinite" begin="-0.4342105263157895s" dur="1.0526315789473684s" keyTimes="0;1" values="1;0" attributeName="opacity"/></rect><rect fill="rgba(255, 255, 255, 0.206)" height="1" width="10" ry=".5" rx="5" y="29.5" x="45" transform="rotate(211.5 50 50)"><animate repeatCount="indefinite" begin="-0.42105263157894735s" dur="1.0526315789473684s" keyTimes="0;1" values="1;0" attributeName="opacity"/></rect><rect fill="rgba(255, 255, 255, 0.206)" height="1" width="10" ry=".5" rx="5" y="29.5" x="45" transform="rotate(216 50 50)"><animate repeatCount="indefinite" begin="-0.40789473684210525s" dur="1.0526315789473684s" keyTimes="0;1" values="1;0" attributeName="opacity"/></rect><rect fill="rgba(255, 255, 255, 0.206)" height="1" width="10" ry=".5" rx="5" y="29.5" x="45" transform="rotate(220.5 50 50)"><animate repeatCount="indefinite" begin="-0.39473684210526316s" dur="1.0526315789473684s" keyTimes="0;1" values="1;0" attributeName="opacity"/></rect><rect fill="rgba(255, 255, 255, 0.206)" height="1" width="10" ry=".5" rx="5" y="29.5" x="45" transform="rotate(225 50 50)"><animate repeatCount="indefinite" begin="-0.3815789473684211s" dur="1.0526315789473684s" keyTimes="0;1" values="1;0" attributeName="opacity"/></rect><rect fill="rgba(255, 255, 255, 0.206)" height="1" width="10" ry=".5" rx="5" y="29.5" x="45" transform="rotate(229.5 50 50)"><animate repeatCount="indefinite" begin="-0.3684210526315789s" dur="1.0526315789473684s" keyTimes="0;1" values="1;0" attributeName="opacity"/></rect><rect fill="rgba(255, 255, 255, 0.206)" height="1" width="10" ry=".5" rx="5" y="29.5" x="45" transform="rotate(234 50 50)"><animate repeatCount="indefinite" begin="-0.35526315789473684s" dur="1.0526315789473684s" keyTimes="0;1" values="1;0" attributeName="opacity"/></rect><rect fill="rgba(255, 255, 255, 0.206)" height="1" width="10" ry=".5" rx="5" y="29.5" x="45" transform="rotate(238.5 50 50)"><animate repeatCount="indefinite" begin="-0.34210526315789475s" dur="1.0526315789473684s" keyTimes="0;1" values="1;0" attributeName="opacity"/></rect><rect fill="rgba(255, 255, 255, 0.206)" height="1" width="10" ry=".5" rx="5" y="29.5" x="45" transform="rotate(243 50 50)"><animate repeatCount="indefinite" begin="-0.32894736842105265s" dur="1.0526315789473684s" keyTimes="0;1" values="1;0" attributeName="opacity"/></rect><rect fill="rgba(255, 255, 255, 0.206)" height="1" width="10" ry=".5" rx="5" y="29.5" x="45" transform="rotate(247.5 50 50)"><animate repeatCount="indefinite" begin="-0.3157894736842105s" dur="1.0526315789473684s" keyTimes="0;1" values="1;0" attributeName="opacity"/></rect><rect fill="rgba(255, 255, 255, 0.206)" height="1" width="10" ry=".5" rx="5" y="29.5" x="45" transform="rotate(252 50 50)"><animate repeatCount="indefinite" begin="-0.3026315789473684s" dur="1.0526315789473684s" keyTimes="0;1" values="1;0" attributeName="opacity"/></rect><rect fill="rgba(255, 255, 255, 0.206)" height="1" width="10" ry=".5" rx="5" y="29.5" x="45" transform="rotate(256.5 50 50)"><animate repeatCount="indefinite" begin="-0.2894736842105263s" dur="1.0526315789473684s" keyTimes="0;1" values="1;0" attributeName="opacity"/></rect><rect fill="rgba(255, 255, 255, 0.206)" height="1" width="10" ry=".5" rx="5" y="29.5" x="45" transform="rotate(261 50 50)"><animate repeatCount="indefinite" begin="-0.27631578947368424s" dur="1.0526315789473684s" keyTimes="0;1" values="1;0" attributeName="opacity"/></rect><rect fill="rgba(255, 255, 255, 0.206)" height="1" width="10" ry=".5" rx="5" y="29.5" x="45" transform="rotate(265.5 50 50)"><animate repeatCount="indefinite" begin="-0.2631578947368421s" dur="1.0526315789473684s" keyTimes="0;1" values="1;0" attributeName="opacity"/></rect><rect fill="rgba(255, 255, 255, 0.206)" height="1" width="10" ry=".5" rx="5" y="29.5" x="45" transform="rotate(270 50 50)"><animate repeatCount="indefinite" begin="-0.25s" dur="1.0526315789473684s" keyTimes="0;1" values="1;0" attributeName="opacity"/></rect><rect fill="rgba(255, 255, 255, 0.206)" height="1" width="10" ry=".5" rx="5" y="29.5" x="45" transform="rotate(274.5 50 50)"><animate repeatCount="indefinite" begin="-0.23684210526315788s" dur="1.0526315789473684s" keyTimes="0;1" values="1;0" attributeName="opacity"/></rect><rect fill="rgba(255, 255, 255, 0.206)" height="1" width="10" ry=".5" rx="5" y="29.5" x="45" transform="rotate(279 50 50)"><animate repeatCount="indefinite" begin="-0.2236842105263158s" dur="1.0526315789473684s" keyTimes="0;1" values="1;0" attributeName="opacity"/></rect><rect fill="rgba(255, 255, 255, 0.206)" height="1" width="10" ry=".5" rx="5" y="29.5" x="45" transform="rotate(283.5 50 50)"><animate repeatCount="indefinite" begin="-0.21052631578947367s" dur="1.0526315789473684s" keyTimes="0;1" values="1;0" attributeName="opacity"/></rect><rect fill="rgba(255, 255, 255, 0.206)" height="1" width="10" ry=".5" rx="5" y="29.5" x="45" transform="rotate(288 50 50)"><animate repeatCount="indefinite" begin="-0.19736842105263158s" dur="1.0526315789473684s" keyTimes="0;1" values="1;0" attributeName="opacity"/></rect><rect fill="rgba(255, 255, 255, 0.206)" height="1" width="10" ry=".5" rx="5" y="29.5" x="45" transform="rotate(292.5 50 50)"><animate repeatCount="indefinite" begin="-0.18421052631578946s" dur="1.0526315789473684s" keyTimes="0;1" values="1;0" attributeName="opacity"/></rect><rect fill="rgba(255, 255, 255, 0.206)" height="1" width="10" ry=".5" rx="5" y="29.5" x="45" transform="rotate(297 50 50)"><animate repeatCount="indefinite" begin="-0.17105263157894737s" dur="1.0526315789473684s" keyTimes="0;1" values="1;0" attributeName="opacity"/></rect><rect fill="rgba(255, 255, 255, 0.206)" height="1" width="10" ry=".5" rx="5" y="29.5" x="45" transform="rotate(301.5 50 50)"><animate repeatCount="indefinite" begin="-0.15789473684210525s" dur="1.0526315789473684s" keyTimes="0;1" values="1;0" attributeName="opacity"/></rect><rect fill="rgba(255, 255, 255, 0.206)" height="1" width="10" ry=".5" rx="5" y="29.5" x="45" transform="rotate(306 50 50)"><animate repeatCount="indefinite" begin="-0.14473684210526316s" dur="1.0526315789473684s" keyTimes="0;1" values="1;0" attributeName="opacity"/></rect><rect fill="rgba(255, 255, 255, 0.206)" height="1" width="10" ry=".5" rx="5" y="29.5" x="45" transform="rotate(310.5 50 50)"><animate repeatCount="indefinite" begin="-0.13157894736842105s" dur="1.0526315789473684s" keyTimes="0;1" values="1;0" attributeName="opacity"/></rect><rect fill="rgba(255, 255, 255, 0.206)" height="1" width="10" ry=".5" rx="5" y="29.5" x="45" transform="rotate(315 50 50)"><animate repeatCount="indefinite" begin="-0.11842105263157894s" dur="1.0526315789473684s" keyTimes="0;1" values="1;0" attributeName="opacity"/></rect><rect fill="rgba(255, 255, 255, 0.206)" height="1" width="10" ry=".5" rx="5" y="29.5" x="45" transform="rotate(319.5 50 50)"><animate repeatCount="indefinite" begin="-0.10526315789473684s" dur="1.0526315789473684s" keyTimes="0;1" values="1;0" attributeName="opacity"/></rect><rect fill="rgba(255, 255, 255, 0.206)" height="1" width="10" ry=".5" rx="5" y="29.5" x="45" transform="rotate(324 50 50)"><animate repeatCount="indefinite" begin="-0.09210526315789473s" dur="1.0526315789473684s" keyTimes="0;1" values="1;0" attributeName="opacity"/></rect><rect fill="rgba(255, 255, 255, 0.206)" height="1" width="10" ry=".5" rx="5" y="29.5" x="45" transform="rotate(328.5 50 50)"><animate repeatCount="indefinite" begin="-0.07894736842105263s" dur="1.0526315789473684s" keyTimes="0;1" values="1;0" attributeName="opacity"/></rect><rect fill="rgba(255, 255, 255, 0.206)" height="1" width="10" ry=".5" rx="5" y="29.5" x="45" transform="rotate(333 50 50)"><animate repeatCount="indefinite" begin="-0.06578947368421052s" dur="1.0526315789473684s" keyTimes="0;1" values="1;0" attributeName="opacity"/></rect><rect fill="rgba(255, 255, 255, 0.206)" height="1" width="10" ry=".5" rx="5" y="29.5" x="45" transform="rotate(337.5 50 50)"><animate repeatCount="indefinite" begin="-0.05263157894736842s" dur="1.0526315789473684s" keyTimes="0;1" values="1;0" attributeName="opacity"/></rect><rect fill="rgba(255, 255, 255, 0.206)" height="1" width="10" ry=".5" rx="5" y="29.5" x="45" transform="rotate(342 50 50)"><animate repeatCount="indefinite" begin="-0.039473684210526314s" dur="1.0526315789473684s" keyTimes="0;1" values="1;0" attributeName="opacity"/></rect><rect fill="rgba(255, 255, 255, 0.206)" height="1" width="10" ry=".5" rx="5" y="29.5" x="45" transform="rotate(346.5 50 50)"><animate repeatCount="indefinite" begin="-0.02631578947368421s" dur="1.0526315789473684s" keyTimes="0;1" values="1;0" attributeName="opacity"/></rect><rect fill="rgba(255, 255, 255, 0.206)" height="1" width="10" ry=".5" rx="5" y="29.5" x="45" transform="rotate(351 50 50)"><animate repeatCount="indefinite" begin="-0.013157894736842105s" dur="1.0526315789473684s" keyTimes="0;1" values="1;0" attributeName="opacity"/></rect><rect fill="rgba(255, 255, 255, 0.206)" height="1" width="10" ry=".5" rx="5" y="29.5" x="45" transform="rotate(355.5 50 50)"><animate repeatCount="indefinite" begin="0s" dur="1.0526315789473684s" keyTimes="0;1" values="1;0" attributeName="opacity"/></rect></svg>